<?xml version="1.0" encoding="UTF-8"?>
<svg xmlns="http://www.w3.org/2000/svg" viewBox="0 0 240 240" width="240" height="240">
  <defs>
    <radialGradient id="bgGrad" cx="50%" cy="40%" r="60%">
      <stop offset="0%" stop-color="#1a5a45"/>
      <stop offset="60%" stop-color="#0d3b2e"/>
      <stop offset="100%" stop-color="#082721"/>
    </radialGradient>
    <linearGradient id="goldGrad" x1="0%" y1="0%" x2="100%" y2="100%">
      <stop offset="0%" stop-color="#f0d896"/>
      <stop offset="50%" stop-color="#c9a961"/>
      <stop offset="100%" stop-color="#8a6f2c"/>
    </linearGradient>
    <filter id="goldShine" x="-20%" y="-20%" width="140%" height="140%">
      <feGaussianBlur stdDeviation="0.5"/>
    </filter>
  </defs>

  <circle cx="120" cy="120" r="118" fill="url(#bgGrad)" stroke="url(#goldGrad)" stroke-width="3"/>
  <circle cx="120" cy="120" r="112" fill="none" stroke="#c9a961" stroke-width="0.6" stroke-dasharray="3 4" opacity="0.7"/>
  <circle cx="120" cy="120" r="100" fill="none" stroke="#c9a961" stroke-width="1.4" opacity="0.85"/>
  <circle cx="120" cy="120" r="96" fill="none" stroke="#c9a961" stroke-width="0.4" opacity="0.5"/>

  <g opacity="0.95" filter="url(#goldShine)">
    <polygon
      points="120,62 130.5,93.4 163.4,93.4 136.7,112.6 147.3,144 120,124.8 92.7,144 103.3,112.6 76.6,93.4 109.5,93.4"
      fill="url(#goldGrad)" stroke="#8a6f2c" stroke-width="0.8"/>
  </g>

  <g fill="#c9a961" opacity="0.9">
    <path d="M 50,140 Q 52,128 55,118 Q 50,122 47,120 Q 51,119 55,113 Q 50,116 47,113 Q 52,111 56,107 M 55,140 L 55,118"
      stroke="#c9a961" stroke-width="1" fill="none" stroke-linecap="round"/>
    <path d="M 190,140 Q 188,128 185,118 Q 190,122 193,120 Q 189,119 185,113 Q 190,116 193,113 Q 188,111 184,107 M 185,140 L 185,118"
      stroke="#c9a961" stroke-width="1" fill="none" stroke-linecap="round"/>
  </g>

  <text x="120" y="178" text-anchor="middle"
    font-family="'Arial', 'Tahoma', sans-serif" font-size="15" font-weight="bold"
    fill="url(#goldGrad)" letter-spacing="1">مجلس النواب</text>
  <text x="120" y="195" text-anchor="middle"
    font-family="'Arial', 'Tahoma', sans-serif" font-size="11" font-weight="600"
    fill="#c9a961" opacity="0.9" letter-spacing="0.5">جمهورية العراق</text>

  <line x1="80" y1="205" x2="160" y2="205" stroke="#c9a961" stroke-width="0.8" opacity="0.6"/>
  <circle cx="120" cy="205" r="2" fill="#c9a961"/>
</svg>
